<svg id="Calque_1" data-name="Calque 1" xmlns="http://www.w3.org/2000/svg" xmlns:xlink="http://www.w3.org/1999/xlink" viewBox="0 0 1190.55 841.89"><defs><style>.cls-1{fill:none;}.cls-2{clip-path:url(#clip-path);}</style><clipPath id="clip-path"><rect class="cls-1" width="1190.55" height="841.89"/></clipPath></defs><g class="cls-2"><path d="M149,414.11a5.39,5.39,0,0,1-3.63,1.17h-.84V411h.57a4.54,4.54,0,0,0,4.8-3.39h3.93v21.3H149Zm14.58,14.76h-5.13V424h5.13ZM183,420.71H180v8.16h-5.07v-21.3h9.36c5.4,0,7.8,2.64,7.8,6.54a5.89,5.89,0,0,1-4.17,5.85l4.71,8.91H187.1ZM180,417.23h3.27c2.46,0,3.54-1.2,3.54-3.12s-1.05-3-3.54-3H180Zm30.51,7.89v3.75H195.68v-21.3h14.58v3.75h-9.51v4.8h9v3.72h-9v5.28Zm1.38-.69,3.75-2.64a6.17,6.17,0,0,0,5.79,3.66c2,0,3.66-.75,3.66-2.43s-.93-2.19-3.09-2.64l-2.85-.6c-3.72-.81-5.88-2.82-5.88-6.39,0-3.9,3.18-6.33,8.31-6.33,3.78,0,7,1.38,8.46,4.23l-3.3,2.79a6,6,0,0,0-5.49-3.27c-2,0-3.3.84-3.3,2.19s.84,2.07,3.09,2.58l3.09.66c3.78.84,5.82,2.64,5.82,6.3,0,4-3.12,6.84-8.7,6.84C216.62,429.38,213.32,427.43,211.85,424.43Zm36.39-12.84H242v17.28h-5V411.59h-6.18v-4h17.43Zm2.4,17.28v-21.3h5.07v21.3Zm24.93-17.28h-6.21v17.28h-5V411.59h-6.18v-4h17.43Zm7.11-4v13.65a4,4,0,1,0,7.92,0V407.57h5.07v13.86c0,4.86-3.36,7.95-9,7.95s-9-3.09-9-7.95V407.57Zm32.58,4h-6.21v17.28h-5V411.59h-6.18v-4h17.43Zm2.4,17.28v-21.3h5.07v21.3Zm8.16-10.65c0-6.87,4.11-11.16,10.5-11.16s10.5,4.29,10.5,11.16-4.11,11.16-10.5,11.16S325.82,425.06,325.82,418.22Zm15.78,0c0-4.5-2-7.2-5.28-7.2s-5.31,2.7-5.31,7.2,2,7.2,5.31,7.2S341.6,422.72,341.6,418.22Zm8.31-10.65h5.61l6.84,12.15a22.16,22.16,0,0,1,1.29,2.76h.06c0-.84,0-1.71,0-2.73V407.57h4.65v21.3h-5.4l-7.08-12.27a20.24,20.24,0,0,1-1.26-2.61h-.06c0,.87,0,1.77,0,2.82v12.06h-4.65Zm30.27,0h8.49c6.39,0,10.53,4.26,10.53,10.53s-4.14,10.77-10.59,10.77h-8.43Zm8.22,17.58c3.6,0,5.58-3.24,5.58-7s-1.86-6.81-5.52-6.81h-3.21v13.86Zm28.68,0v3.75H402.29v-21.3h14.58v3.75h-9.51v4.8h9v3.72h-9v5.28Zm11.1-17.55h5.07v17.19h8.63v4.11h-13.7ZM458,423.89h-7.86l-1.62,5h-5.07l7.74-21.3H457l7.73,21.3h-5.09Zm-1.17-3.57-1.95-5.94a18.76,18.76,0,0,1-.78-3H454a18.76,18.76,0,0,1-.78,3l-1.95,5.94ZM472,418.25c0-6.72,4-11.19,10.43-11.19,5.43,0,8.85,3,9.42,7.65l-5.13.9c-.3-2.82-1.86-4.47-4.41-4.47-3.24,0-5.12,2.73-5.12,7.08s1.91,7,5.27,7c2.37,0,4-1.62,4.38-4.38L492,422c-1,4.5-4.32,7.38-9.6,7.38C475.64,429.38,472,425,472,418.25Zm21.63,0c0-6.87,4.1-11.16,10.49-11.16s10.5,4.29,10.5,11.16-4.11,11.16-10.5,11.16S493.64,425.06,493.64,418.22Zm15.77,0c0-4.5-2-7.2-5.28-7.2s-5.31,2.7-5.31,7.2,2,7.2,5.31,7.2S509.41,422.72,509.41,418.22Zm8.31-10.65h5.61l6.84,12.15a22.16,22.16,0,0,1,1.29,2.76h.06c0-.84,0-1.71,0-2.73V407.57h4.65v21.3h-5.4l-7.08-12.27A20.24,20.24,0,0,1,522.4,414h-.06c0,.87,0,1.77,0,2.82v12.06h-4.65Zm21.51,10.68c0-6.72,4-11.19,10.44-11.19,5.43,0,8.85,3,9.42,7.65l-5.13.9c-.3-2.82-1.86-4.47-4.41-4.47-3.24,0-5.13,2.73-5.13,7.08s1.92,7,5.28,7c2.37,0,4-1.62,4.38-4.38l5.13,1.11c-1,4.5-4.32,7.38-9.6,7.38C542.86,429.38,539.23,425,539.23,418.25Zm37.65,6.87v3.75H562.09v-21.3h14.58v3.75h-9.51v4.8h9v3.72h-9v5.28Zm11.82-4.41h-3.06v8.16h-5.07v-21.3h9.36c5.4,0,7.8,2.64,7.8,6.54a5.89,5.89,0,0,1-4.17,5.85l4.71,8.91h-5.49Zm-3.06-3.48h3.27c2.46,0,3.54-1.2,3.54-3.12s-1.05-3-3.54-3h-3.27Zm30.6-5.64H610v17.28h-5V411.59h-6.18v-4h17.43Zm12.42,12.3H620.8l-1.62,5h-5.07l7.74-21.3h5.79l7.74,21.3h-5.1Zm-1.17-3.57-2-5.94a18.76,18.76,0,0,1-.78-3h-.06a18.76,18.76,0,0,1-.78,3L622,420.32Zm23.19-8.73h-6.21v17.28h-5V411.59h-6.18v-4h17.43Zm2.4,17.28v-21.3h5.07v21.3Zm8.16-10.65c0-6.87,4.11-11.16,10.5-11.16s10.5,4.29,10.5,11.16-4.11,11.16-10.5,11.16S661.24,425.06,661.24,418.22Zm15.78,0c0-4.5-1.95-7.2-5.28-7.2s-5.31,2.7-5.31,7.2,2,7.2,5.31,7.2S677,422.72,677,418.22Zm8.31-10.65h5.61l6.84,12.15a22.16,22.16,0,0,1,1.29,2.76h.06c0-.84,0-1.71,0-2.73V407.57h4.65v21.3h-5.4l-7.08-12.27A20.24,20.24,0,0,1,690,414H690c0,.87,0,1.77,0,2.82v12.06h-4.65Zm30.27,21.3v-21.3h5.07v21.3Zm16.92-21.3H741c6.39,0,10.53,4.26,10.53,10.53S747.4,428.87,741,428.87h-8.43Zm8.22,17.58c3.6,0,5.58-3.24,5.58-7s-1.86-6.81-5.52-6.81h-3.21v13.86Zm18.6-17.58v13.65a4,4,0,1,0,7.92,0V407.57h5.07v13.86c0,4.86-3.36,7.95-9,7.95s-9-3.09-9-7.95V407.57Zm27.39,6.54a5.39,5.39,0,0,1-3.63,1.17h-.84V411h.57a4.54,4.54,0,0,0,4.8-3.39h3.93v21.3h-4.83Zm8.76,4.08c0-7,3.33-11.13,9-11.13s9,4.11,9,11.13-3.33,11.13-9,11.13S795.49,425.21,795.49,418.19Zm13,0c0-4.8-1.44-7.38-4-7.38s-4,2.58-4,7.38,1.44,7.38,4,7.38S808.48,423,808.48,418.19Zm14.28,0c0-6.87,4.11-11.16,10.5-11.16s10.5,4.29,10.5,11.16-4.11,11.16-10.5,11.16S822.76,425.06,822.76,418.22Zm15.78,0c0-4.5-1.95-7.2-5.28-7.2s-5.31,2.7-5.31,7.2,2,7.2,5.31,7.2S838.54,422.72,838.54,418.22Zm7.35,0c0-6.72,4-11.19,10.44-11.19,5.43,0,8.85,3,9.42,7.65l-5.13.9c-.3-2.82-1.86-4.47-4.41-4.47-3.24,0-5.13,2.73-5.13,7.08s1.92,7,5.28,7c2.37,0,4-1.62,4.38-4.38l5.13,1.11c-1,4.5-4.32,7.38-9.6,7.38C849.52,429.38,845.89,425,845.89,418.25Zm37.86-6.66h-6.21v17.28h-5V411.59h-6.18v-4h17.43Zm-.06,6.63c0-6.87,4.11-11.16,10.5-11.16s10.5,4.29,10.5,11.16-4.11,11.16-10.5,11.16S883.69,425.06,883.69,418.22Zm15.78,0c0-4.5-2-7.2-5.28-7.2s-5.31,2.7-5.31,7.2,2,7.2,5.31,7.2S899.47,422.72,899.47,418.22ZM925,422.87c0,3.36-2.37,6-7.23,6h-10v-21.3h9.6c4.86,0,7.08,2.37,7.08,5.49a4.76,4.76,0,0,1-3.84,4.71A4.8,4.8,0,0,1,925,422.87Zm-12.15-11.73v5.19H916c2.28,0,3.15-1.17,3.15-2.61s-1-2.58-3.15-2.58Zm6.87,11.31c0-1.65-1.11-2.76-3.24-2.76h-3.63v5.61h3.51C918.67,425.3,919.72,424.07,919.72,422.45Zm16.62-1.74h-3.06v8.16h-5.07v-21.3h9.36c5.4,0,7.8,2.64,7.8,6.54A5.89,5.89,0,0,1,941.2,420l4.71,8.91h-5.49Zm-3.06-3.48h3.27c2.46,0,3.54-1.2,3.54-3.12s-1.05-3-3.54-3h-3.27Zm30.51,7.89v3.75H949v-21.3h14.58v3.75h-9.51v4.8h9v3.72h-9v5.28Zm9.75.21a45.06,45.06,0,0,0,7.53-5.49c2-2,2.85-3.6,2.85-5.73s-1-3.24-2.7-3.24-2.82,1.2-2.82,3.18a10.13,10.13,0,0,0,.21,1.71l-4.92-.45a8.15,8.15,0,0,1-.18-1.65c0-4,3.06-6.6,8-6.6s7.62,2.43,7.62,6.69c0,2.88-1.23,5.31-3.75,7.65a28.91,28.91,0,0,1-5.19,3.63h9.12v3.84H973.54Zm17.25-7.14c0-7,3.33-11.13,9-11.13s9,4.11,9,11.13-3.33,11.13-9,11.13S990.79,425.21,990.79,418.19Zm13,0c0-4.8-1.44-7.38-4-7.38s-4,2.58-4,7.38,1.44,7.38,4,7.38S1003.78,423,1003.78,418.19Zm6.69,7.14a45.06,45.06,0,0,0,7.53-5.49c2-2,2.85-3.6,2.85-5.73s-1-3.24-2.7-3.24-2.82,1.2-2.82,3.18a10.13,10.13,0,0,0,.21,1.71l-4.92-.45a8.15,8.15,0,0,1-.18-1.65c0-4,3.06-6.6,7.95-6.6s7.62,2.43,7.62,6.69c0,2.88-1.23,5.31-3.75,7.65a28.91,28.91,0,0,1-5.19,3.63h9.12v3.84h-15.72Zm17.25-7.14c0-7,3.33-11.13,9-11.13s9,4.11,9,11.13-3.33,11.13-9,11.13S1027.72,425.21,1027.72,418.19Zm13,0c0-4.8-1.44-7.38-4-7.38s-4,2.58-4,7.38,1.44,7.38,4,7.38S1040.71,423,1040.71,418.19Z"/></g></svg>